<svg width="175" height="56" viewBox="0 0 175 56" fill="none" xmlns="http://www.w3.org/2000/svg">
<rect x="0.00128174" width="175" height="56" rx="8" fill="url(#paint0_linear_24_104)"/>
<rect x="1.05128" y="1.05" width="172.9" height="53.9" rx="6.95" stroke="white" stroke-opacity="0.15" stroke-width="2.1"/>
<g filter="url(#filter0_d_24_104)">
<path d="M45.8616 15.4931C43.2993 14.3369 40.5769 13.496 37.7157 13.002C37.6623 13.002 37.609 13.002 37.5876 13.0651C37.2353 13.6852 36.8403 14.4841 36.5734 15.1147C33.4773 14.6627 30.4346 14.6627 27.4239 15.1147C27.1464 14.463 26.7514 13.6747 26.3563 13.0651C26.3243 13.023 26.2816 12.9915 26.2282 13.002C23.7727 13.4855 20.6339 14.3684 18.1144 15.4931C18.093 15.4931 18.0717 15.5141 18.061 15.5351C12.8297 23.2081 11.4418 30.5656 12.1891 37.9232C12.1891 37.9548 12.2105 37.9968 12.2425 38.0283C15.6589 40.5089 18.9685 42.0225 22.2354 43C22.2887 43 22.3421 43 22.3742 42.9579C23.1428 41.9279 23.8261 40.8347 24.424 39.6785C24.456 39.6155 24.424 39.5314 24.3492 39.5104C23.2816 39.0899 22.214 38.6064 21.2211 38.0389C21.1464 37.9968 21.1357 37.8812 21.2211 37.8286C21.4347 37.671 21.6482 37.5133 21.8403 37.3557C21.8724 37.3241 21.9258 37.3241 21.9685 37.3346C28.5236 40.2777 35.6339 40.2777 42.0395 37.3346C42.0822 37.3136 42.1356 37.3241 42.1677 37.3451C42.3705 37.5133 42.5733 37.671 42.7869 37.8286C42.8616 37.8812 42.8509 37.9968 42.7869 38.0389C41.794 38.617 40.7584 39.0899 39.6588 39.5104C39.584 39.5419 39.552 39.6155 39.5947 39.6891C40.1926 40.8453 40.8865 41.9279 41.6232 42.9474C41.6552 42.9895 41.7086 43.0105 41.762 42.9895C45.0288 41.9909 48.3491 40.4879 51.7761 38.0178C51.8082 37.9968 51.8295 37.9653 51.8295 37.9127C52.6623 29.4095 50.431 22.0413 45.915 15.5246C45.915 15.5036 45.8829 15.4826 45.8616 15.4826V15.4931ZM25.3635 33.4666C23.335 33.4666 21.7336 31.6798 21.7336 29.4725C21.7336 27.2652 23.335 25.4784 25.3635 25.4784C27.3919 25.4784 28.9933 27.2652 28.9933 29.4725C28.9933 31.6798 27.3919 33.4666 25.3635 33.4666ZM38.7086 33.4666C36.6801 33.4666 35.0787 31.6798 35.0787 29.4725C35.0787 27.2652 36.6801 25.4784 38.7086 25.4784C40.7371 25.4784 42.3385 27.2652 42.3385 29.4725C42.3385 31.6798 40.7371 33.4666 38.7086 33.4666Z" fill="#5865F2"/>
</g>
<g filter="url(#filter1_d_24_104)">
<path d="M60.7058 14.375V12.8636H69.7115V14.375H66.0808V24.5H64.3308V14.375H60.7058ZM70.6589 24.5V15.7727H72.301V17.1591H72.3919C72.551 16.6894 72.8313 16.3201 73.2328 16.0511C73.6381 15.7784 74.0964 15.642 74.6078 15.642C74.7139 15.642 74.8389 15.6458 74.9828 15.6534C75.1305 15.661 75.2461 15.6705 75.3294 15.6818V17.3068C75.2612 17.2879 75.14 17.267 74.9658 17.2443C74.7915 17.2178 74.6173 17.2045 74.443 17.2045C74.0415 17.2045 73.6836 17.2898 73.3692 17.4602C73.0586 17.6269 72.8124 17.8598 72.6305 18.1591C72.4487 18.4545 72.3578 18.7917 72.3578 19.1705V24.5H70.6589ZM76.7996 24.5V15.7727H78.4984V24.5H76.7996ZM77.6575 14.4261C77.3621 14.4261 77.1083 14.3276 76.8962 14.1307C76.6878 13.9299 76.5837 13.6913 76.5837 13.4148C76.5837 13.1345 76.6878 12.8958 76.8962 12.6989C77.1083 12.4981 77.3621 12.3977 77.6575 12.3977C77.953 12.3977 78.2049 12.4981 78.4132 12.6989C78.6253 12.8958 78.7314 13.1345 78.7314 13.4148C78.7314 13.6913 78.6253 13.9299 78.4132 14.1307C78.2049 14.3276 77.953 14.4261 77.6575 14.4261ZM84.8578 15.7727V17.1364H80.0908V15.7727H84.8578ZM81.3692 13.6818H83.068V21.9375C83.068 22.267 83.1173 22.5151 83.2158 22.6818C83.3142 22.8447 83.4411 22.9564 83.5964 23.017C83.7555 23.0739 83.9279 23.1023 84.1135 23.1023C84.2499 23.1023 84.3692 23.0928 84.4714 23.0739C84.5737 23.0549 84.6533 23.0398 84.7101 23.0284L85.0169 24.4318C84.9184 24.4697 84.7783 24.5076 84.5964 24.5455C84.4146 24.5871 84.1874 24.6098 83.9146 24.6136C83.4677 24.6212 83.051 24.5417 82.6646 24.375C82.2783 24.2083 81.9658 23.9508 81.7271 23.6023C81.4885 23.2538 81.3692 22.8163 81.3692 22.2898V13.6818ZM90.8109 15.7727V17.1364H86.0439V15.7727H90.8109ZM87.3223 13.6818H89.0212V21.9375C89.0212 22.267 89.0704 22.5151 89.1689 22.6818C89.2674 22.8447 89.3943 22.9564 89.5496 23.017C89.7087 23.0739 89.881 23.1023 90.0666 23.1023C90.203 23.1023 90.3223 23.0928 90.4246 23.0739C90.5268 23.0549 90.6064 23.0398 90.6632 23.0284L90.97 24.4318C90.8715 24.4697 90.7314 24.5076 90.5496 24.5455C90.3678 24.5871 90.1405 24.6098 89.8678 24.6136C89.4208 24.6212 89.0041 24.5417 88.6178 24.375C88.2314 24.2083 87.9189 23.9508 87.6803 23.6023C87.4416 23.2538 87.3223 22.8163 87.3223 22.2898V13.6818ZM102.453 20.8807V15.7727H104.158V24.5H102.487V22.9886H102.396C102.195 23.4545 101.873 23.8428 101.43 24.1534C100.991 24.4602 100.444 24.6136 99.7882 24.6136C99.2276 24.6136 98.7314 24.4905 98.2996 24.2443C97.8715 23.9943 97.5344 23.625 97.2882 23.1364C97.0458 22.6477 96.9246 22.0436 96.9246 21.3239V15.7727H98.6234V21.1193C98.6234 21.714 98.7882 22.1875 99.1177 22.5398C99.4473 22.892 99.8753 23.0682 100.402 23.0682C100.72 23.0682 101.036 22.9886 101.351 22.8295C101.669 22.6705 101.932 22.4299 102.14 22.108C102.353 21.786 102.457 21.3769 102.453 20.8807ZM108.139 19.3182V24.5H106.44V15.7727H108.071V17.1932H108.179C108.38 16.7311 108.694 16.3598 109.122 16.0795C109.554 15.7992 110.097 15.6591 110.753 15.6591C111.347 15.6591 111.868 15.7841 112.315 16.0341C112.762 16.2803 113.109 16.6477 113.355 17.1364C113.601 17.625 113.724 18.2292 113.724 18.9489V24.5H112.025V19.1534C112.025 18.5208 111.861 18.0265 111.531 17.6705C111.202 17.3106 110.749 17.1307 110.173 17.1307C109.779 17.1307 109.429 17.2159 109.122 17.3864C108.819 17.5568 108.578 17.8068 108.4 18.1364C108.226 18.4621 108.139 18.8561 108.139 19.3182ZM122.542 17.9034L121.003 18.1761C120.938 17.9792 120.836 17.7917 120.696 17.6136C120.56 17.4356 120.374 17.2898 120.139 17.1761C119.904 17.0625 119.611 17.0057 119.258 17.0057C118.777 17.0057 118.376 17.1136 118.054 17.3295C117.732 17.5417 117.571 17.8163 117.571 18.1534C117.571 18.4451 117.679 18.6799 117.895 18.858C118.111 19.036 118.459 19.1818 118.94 19.2955L120.327 19.6136C121.13 19.7992 121.728 20.0852 122.122 20.4716C122.516 20.858 122.713 21.3598 122.713 21.9773C122.713 22.5 122.561 22.9659 122.258 23.375C121.959 23.7803 121.541 24.0985 121.003 24.3295C120.469 24.5606 119.849 24.6761 119.145 24.6761C118.167 24.6761 117.37 24.4678 116.753 24.0511C116.135 23.6307 115.756 23.0341 115.616 22.2614L117.258 22.0114C117.361 22.4394 117.571 22.7633 117.889 22.983C118.207 23.1989 118.622 23.3068 119.133 23.3068C119.69 23.3068 120.135 23.1913 120.469 22.9602C120.802 22.7254 120.969 22.4394 120.969 22.1023C120.969 21.8295 120.866 21.6004 120.662 21.4148C120.461 21.2292 120.152 21.089 119.736 20.9943L118.258 20.6705C117.444 20.4848 116.842 20.1894 116.452 19.7841C116.065 19.3788 115.872 18.8655 115.872 18.2443C115.872 17.7292 116.016 17.2784 116.304 16.892C116.592 16.5057 116.989 16.2045 117.497 15.9886C118.005 15.7689 118.586 15.6591 119.241 15.6591C120.185 15.6591 120.927 15.8636 121.469 16.2727C122.01 16.678 122.368 17.2216 122.542 17.9034ZM128.342 24.6761C127.482 24.6761 126.742 24.4924 126.121 24.125C125.503 23.7538 125.026 23.233 124.689 22.5625C124.355 21.8883 124.189 21.0985 124.189 20.1932C124.189 19.2992 124.355 18.5114 124.689 17.8295C125.026 17.1477 125.496 16.6155 126.098 16.233C126.704 15.8504 127.412 15.6591 128.223 15.6591C128.715 15.6591 129.193 15.7405 129.655 15.9034C130.117 16.0663 130.532 16.322 130.899 16.6705C131.266 17.0189 131.556 17.4716 131.768 18.0284C131.98 18.5814 132.086 19.2538 132.086 20.0455V20.6477H125.149V19.375H130.422C130.422 18.928 130.331 18.5322 130.149 18.1875C129.967 17.839 129.711 17.5644 129.382 17.3636C129.056 17.1629 128.674 17.0625 128.234 17.0625C127.757 17.0625 127.34 17.1799 126.984 17.4148C126.632 17.6458 126.359 17.9489 126.166 18.3239C125.977 18.6951 125.882 19.0985 125.882 19.5341V20.5284C125.882 21.1117 125.984 21.608 126.189 22.017C126.397 22.4261 126.687 22.7386 127.058 22.9545C127.429 23.1667 127.863 23.2727 128.359 23.2727C128.681 23.2727 128.975 23.2273 129.24 23.1364C129.505 23.0417 129.734 22.9015 129.927 22.7159C130.121 22.5303 130.268 22.3011 130.371 22.0284L131.979 22.3182C131.85 22.7917 131.619 23.2064 131.285 23.5625C130.956 23.9148 130.541 24.1894 130.041 24.3864C129.545 24.5795 128.979 24.6761 128.342 24.6761ZM133.971 24.5V15.7727H135.613V17.1591H135.704C135.863 16.6894 136.144 16.3201 136.545 16.0511C136.951 15.7784 137.409 15.642 137.92 15.642C138.026 15.642 138.151 15.6458 138.295 15.6534C138.443 15.661 138.559 15.6705 138.642 15.6818V17.3068C138.574 17.2879 138.452 17.267 138.278 17.2443C138.104 17.2178 137.93 17.2045 137.756 17.2045C137.354 17.2045 136.996 17.2898 136.682 17.4602C136.371 17.6269 136.125 17.8598 135.943 18.1591C135.761 18.4545 135.67 18.7917 135.67 19.1705V24.5H133.971ZM143.561 24.6761C142.701 24.6761 141.961 24.4924 141.339 24.125C140.722 23.7538 140.245 23.233 139.908 22.5625C139.574 21.8883 139.408 21.0985 139.408 20.1932C139.408 19.2992 139.574 18.5114 139.908 17.8295C140.245 17.1477 140.714 16.6155 141.317 16.233C141.923 15.8504 142.631 15.6591 143.442 15.6591C143.934 15.6591 144.411 15.7405 144.873 15.9034C145.336 16.0663 145.75 16.322 146.118 16.6705C146.485 17.0189 146.775 17.4716 146.987 18.0284C147.199 18.5814 147.305 19.2538 147.305 20.0455V20.6477H140.368V19.375H145.64C145.64 18.928 145.55 18.5322 145.368 18.1875C145.186 17.839 144.93 17.5644 144.601 17.3636C144.275 17.1629 143.892 17.0625 143.453 17.0625C142.976 17.0625 142.559 17.1799 142.203 17.4148C141.851 17.6458 141.578 17.9489 141.385 18.3239C141.195 18.6951 141.101 19.0985 141.101 19.5341V20.5284C141.101 21.1117 141.203 21.608 141.408 22.017C141.616 22.4261 141.906 22.7386 142.277 22.9545C142.648 23.1667 143.082 23.2727 143.578 23.2727C143.9 23.2727 144.193 23.2273 144.459 23.1364C144.724 23.0417 144.953 22.9015 145.146 22.7159C145.339 22.5303 145.487 22.3011 145.589 22.0284L147.197 22.3182C147.068 22.7917 146.837 23.2064 146.504 23.5625C146.175 23.9148 145.76 24.1894 145.26 24.3864C144.764 24.5795 144.197 24.6761 143.561 24.6761ZM149.19 24.5V15.7727H150.821V17.1932H150.929C151.111 16.7121 151.408 16.3371 151.821 16.0682C152.234 15.7955 152.728 15.6591 153.304 15.6591C153.887 15.6591 154.376 15.7955 154.77 16.0682C155.167 16.3409 155.461 16.7159 155.65 17.1932H155.741C155.95 16.7273 156.281 16.3561 156.736 16.0795C157.19 15.7992 157.732 15.6591 158.361 15.6591C159.152 15.6591 159.798 15.9072 160.298 16.4034C160.802 16.8996 161.054 17.6477 161.054 18.6477V24.5H159.355V18.8068C159.355 18.2159 159.194 17.7879 158.872 17.5227C158.55 17.2576 158.166 17.125 157.719 17.125C157.166 17.125 156.736 17.2955 156.429 17.6364C156.122 17.9735 155.969 18.4072 155.969 18.9375V24.5H154.275V18.6989C154.275 18.2254 154.128 17.8447 153.832 17.5568C153.537 17.2689 153.152 17.125 152.679 17.125C152.357 17.125 152.059 17.2102 151.787 17.3807C151.518 17.5473 151.3 17.7803 151.133 18.0795C150.97 18.3788 150.889 18.7254 150.889 19.1193V24.5H149.19Z" fill="#E8E8E8"/>
<path d="M65.507 43.5H60.937V31.1364H65.5009C66.7606 31.1364 67.8453 31.3839 68.7548 31.8789C69.6684 32.3699 70.3727 33.0782 70.8678 34.0039C71.3628 34.9255 71.6103 36.0283 71.6103 37.3121C71.6103 38.6 71.3628 39.7068 70.8678 40.6325C70.3768 41.5581 69.6745 42.2685 68.7609 42.7635C67.8473 43.2545 66.7626 43.5 65.507 43.5ZM63.9253 40.9524H65.3923C66.0845 40.9524 66.6701 40.8357 67.149 40.6023C67.632 40.3648 67.9962 39.9805 68.2417 39.4492C68.4912 38.9139 68.616 38.2016 68.616 37.3121C68.616 36.4227 68.4912 35.7144 68.2417 35.1871C67.9922 34.6559 67.6239 34.2736 67.1369 34.0401C66.654 33.8027 66.0583 33.6839 65.35 33.6839H63.9253V40.9524ZM73.355 43.5V34.2273H76.307V43.5H73.355ZM74.834 33.1467C74.4195 33.1467 74.0633 33.0098 73.7655 32.7361C73.4677 32.4584 73.3187 32.1244 73.3187 31.734C73.3187 31.3477 73.4677 31.0176 73.7655 30.744C74.0633 30.4663 74.4195 30.3274 74.834 30.3274C75.2526 30.3274 75.6088 30.4663 75.9026 30.744C76.2004 31.0176 76.3493 31.3477 76.3493 31.734C76.3493 32.1244 76.2004 32.4584 75.9026 32.7361C75.6088 33.0098 75.2526 33.1467 74.834 33.1467ZM86.2815 37.0586L83.571 37.131C83.5428 36.9379 83.4663 36.7668 83.3416 36.6179C83.2168 36.465 83.0538 36.3462 82.8526 36.2617C82.6554 36.1732 82.426 36.1289 82.1644 36.1289C81.8223 36.1289 81.5305 36.1973 81.289 36.3342C81.0516 36.471 80.9348 36.6561 80.9389 36.8896C80.9348 37.0707 81.0073 37.2276 81.1562 37.3604C81.3091 37.4932 81.5808 37.5999 81.9712 37.6804L83.7581 38.0185C84.6838 38.1955 85.372 38.4893 85.8227 38.8999C86.2775 39.3104 86.5069 39.8537 86.511 40.5298C86.5069 41.1657 86.3178 41.7191 85.9435 42.19C85.5732 42.6609 85.0661 43.0271 84.4222 43.2887C83.7782 43.5463 83.0417 43.6751 82.2127 43.6751C80.8886 43.6751 79.8442 43.4034 79.0795 42.8601C78.3188 42.3127 77.8842 41.5803 77.7755 40.6626L80.6914 40.5902C80.7557 40.9283 80.9228 41.1858 81.1924 41.3629C81.4621 41.54 81.8062 41.6285 82.2247 41.6285C82.603 41.6285 82.9109 41.5581 83.1484 41.4173C83.3858 41.2764 83.5066 41.0892 83.5106 40.8558C83.5066 40.6465 83.414 40.4795 83.2329 40.3548C83.0518 40.226 82.7681 40.1254 82.3817 40.0529L80.7638 39.745C79.8341 39.576 79.1419 39.2641 78.6871 38.8093C78.2323 38.3505 78.0069 37.7669 78.011 37.0586C78.0069 36.4388 78.1719 35.9096 78.506 35.4709C78.84 35.0282 79.3149 34.6901 79.9307 34.4567C80.5465 34.2232 81.2729 34.1065 82.11 34.1065C83.3657 34.1065 84.3558 34.3701 85.0802 34.8974C85.8046 35.4206 86.2051 36.141 86.2815 37.0586ZM92.2928 43.6751C91.3148 43.6751 90.4757 43.4738 89.7754 43.0714C89.0792 42.6689 88.5439 42.1095 88.1696 41.3931C87.7953 40.6727 87.6082 39.8396 87.6082 38.8938C87.6082 37.944 87.7953 37.1109 88.1696 36.3945C88.5479 35.6741 89.0852 35.1127 89.7815 34.7102C90.4817 34.3078 91.3169 34.1065 92.2868 34.1065C93.144 34.1065 93.8906 34.2615 94.5265 34.5714C95.1664 34.8813 95.6655 35.32 96.0236 35.8874C96.3859 36.4509 96.577 37.1129 96.5972 37.8736H93.8383C93.7819 37.3987 93.6209 37.0264 93.3553 36.7567C93.0937 36.4871 92.7516 36.3523 92.329 36.3523C91.9869 36.3523 91.6871 36.4489 91.4295 36.642C91.172 36.8312 90.9707 37.1129 90.8258 37.4872C90.685 37.8575 90.6146 38.3163 90.6146 38.8636C90.6146 39.411 90.685 39.8738 90.8258 40.2521C90.9707 40.6264 91.172 40.9102 91.4295 41.1033C91.6871 41.2925 91.9869 41.3871 92.329 41.3871C92.6027 41.3871 92.8442 41.3287 93.0535 41.212C93.2668 41.0953 93.4418 40.9242 93.5787 40.6989C93.7155 40.4695 93.8021 40.1918 93.8383 39.8658H96.5972C96.569 40.6304 96.3778 41.2985 96.0236 41.87C95.6735 42.4415 95.1805 42.8862 94.5446 43.2042C93.9127 43.5181 93.1621 43.6751 92.2928 43.6751ZM102.436 43.6751C101.462 43.6751 100.625 43.4758 99.925 43.0774C99.2288 42.6749 98.6915 42.1155 98.3131 41.3991C97.9389 40.6787 97.7517 39.8436 97.7517 38.8938C97.7517 37.94 97.9389 37.1049 98.3131 36.3885C98.6915 35.6681 99.2288 35.1087 99.925 34.7102C100.625 34.3078 101.462 34.1065 102.436 34.1065C103.41 34.1065 104.245 34.3078 104.942 34.7102C105.642 35.1087 106.179 35.6681 106.554 36.3885C106.932 37.1049 107.121 37.94 107.121 38.8938C107.121 39.8436 106.932 40.6787 106.554 41.3991C106.179 42.1155 105.642 42.6749 104.942 43.0774C104.245 43.4758 103.41 43.6751 102.436 43.6751ZM102.454 41.4474C102.809 41.4474 103.108 41.3388 103.354 41.1214C103.599 40.9041 103.787 40.6023 103.915 40.2159C104.048 39.8295 104.115 39.3828 104.115 38.8757C104.115 38.3606 104.048 37.9098 103.915 37.5234C103.787 37.1371 103.599 36.8352 103.354 36.6179C103.108 36.4006 102.809 36.2919 102.454 36.2919C102.088 36.2919 101.778 36.4006 101.525 36.6179C101.275 36.8352 101.084 37.1371 100.951 37.5234C100.822 37.9098 100.758 38.3606 100.758 38.8757C100.758 39.3828 100.822 39.8295 100.951 40.2159C101.084 40.6023 101.275 40.9041 101.525 41.1214C101.778 41.3388 102.088 41.4474 102.454 41.4474ZM108.633 43.5V34.2273H111.501V35.9176H111.597C111.766 35.3059 112.042 34.8511 112.424 34.5533C112.807 34.2514 113.252 34.1005 113.759 34.1005C113.895 34.1005 114.036 34.1106 114.181 34.1307C114.326 34.1468 114.461 34.1729 114.586 34.2092V36.7749C114.445 36.7266 114.26 36.6883 114.03 36.6602C113.805 36.632 113.604 36.6179 113.427 36.6179C113.076 36.6179 112.761 36.6964 112.479 36.8533C112.201 37.0063 111.982 37.2216 111.821 37.4993C111.664 37.773 111.585 38.0949 111.585 38.4652V43.5H108.633ZM118.694 43.6328C118.01 43.6328 117.388 43.4557 116.828 43.1016C116.269 42.7474 115.822 42.2161 115.488 41.5078C115.154 40.7995 114.987 39.9201 114.987 38.8697C114.987 37.779 115.16 36.8815 115.506 36.1772C115.852 35.4729 116.305 34.9517 116.865 34.6136C117.428 34.2756 118.034 34.1065 118.682 34.1065C119.169 34.1065 119.585 34.191 119.931 34.3601C120.278 34.5251 120.563 34.7384 120.789 35C121.014 35.2616 121.185 35.5333 121.302 35.815H121.362V31.1364H124.314V43.5H121.392V41.9968H121.302C121.177 42.2825 121 42.5502 120.771 42.7997C120.541 43.0492 120.253 43.2505 119.907 43.4034C119.565 43.5563 119.161 43.6328 118.694 43.6328ZM119.72 41.3327C120.078 41.3327 120.384 41.2321 120.638 41.0309C120.891 40.8256 121.086 40.5379 121.223 40.1676C121.36 39.7973 121.429 39.3627 121.429 38.8636C121.429 38.3565 121.36 37.9199 121.223 37.5536C121.09 37.1874 120.895 36.9057 120.638 36.7084C120.384 36.5112 120.078 36.4126 119.72 36.4126C119.354 36.4126 119.044 36.5133 118.79 36.7145C118.537 36.9157 118.344 37.1995 118.211 37.5657C118.082 37.9319 118.018 38.3646 118.018 38.8636C118.018 39.3627 118.084 39.7973 118.217 40.1676C118.35 40.5379 118.541 40.8256 118.79 41.0309C119.044 41.2321 119.354 41.3327 119.72 41.3327Z" fill="#5865F2"/>
<path d="M131.103 43.5V31.1364H132.908V35.7305H133.016C133.121 35.5373 133.272 35.3139 133.469 35.0604C133.666 34.8068 133.94 34.5855 134.29 34.3963C134.64 34.2031 135.103 34.1065 135.679 34.1065C136.427 34.1065 137.095 34.2957 137.683 34.674C138.271 35.0523 138.731 35.5977 139.065 36.31C139.404 37.0224 139.573 37.8796 139.573 38.8817C139.573 39.8839 139.406 40.7431 139.071 41.4595C138.737 42.1719 138.279 42.7212 137.695 43.1076C137.111 43.4899 136.445 43.6811 135.697 43.6811C135.133 43.6811 134.673 43.5865 134.314 43.3974C133.96 43.2082 133.683 42.9869 133.481 42.7333C133.28 42.4798 133.125 42.2544 133.016 42.0572H132.866V43.5H131.103ZM132.872 38.8636C132.872 39.5156 132.966 40.0871 133.155 40.5781C133.344 41.0691 133.618 41.4535 133.976 41.7312C134.335 42.0048 134.773 42.1417 135.292 42.1417C135.832 42.1417 136.282 41.9988 136.645 41.7131C137.007 41.4233 137.281 41.0309 137.466 40.5359C137.655 40.0408 137.749 39.4834 137.749 38.8636C137.749 38.2519 137.657 37.7025 137.472 37.2156C137.291 36.7286 137.017 36.3442 136.651 36.0625C136.288 35.7808 135.836 35.6399 135.292 35.6399C134.769 35.6399 134.326 35.7747 133.964 36.0444C133.606 36.314 133.334 36.6903 133.149 37.1733C132.964 37.6562 132.872 38.2197 132.872 38.8636ZM145.596 43.6871C144.682 43.6871 143.895 43.4919 143.235 43.1016C142.579 42.7071 142.072 42.1538 141.714 41.4414C141.36 40.725 141.183 39.8859 141.183 38.924C141.183 37.9742 141.36 37.1371 141.714 36.4126C142.072 35.6882 142.571 35.1227 143.211 34.7163C143.855 34.3098 144.608 34.1065 145.469 34.1065C145.992 34.1065 146.499 34.1931 146.99 34.3661C147.481 34.5392 147.922 34.8108 148.313 35.1811C148.703 35.5514 149.011 36.0323 149.236 36.6239C149.462 37.2115 149.574 37.9259 149.574 38.767V39.407H142.203V38.0547H147.805C147.805 37.5798 147.709 37.1592 147.516 36.793C147.322 36.4227 147.051 36.1309 146.701 35.9176C146.355 35.7043 145.948 35.5977 145.481 35.5977C144.974 35.5977 144.531 35.7224 144.153 35.9719C143.779 36.2174 143.489 36.5394 143.284 36.9379C143.083 37.3323 142.982 37.7609 142.982 38.2237V39.2802C142.982 39.9 143.091 40.4272 143.308 40.8619C143.529 41.2965 143.837 41.6285 144.232 41.858C144.626 42.0833 145.087 42.196 145.614 42.196C145.956 42.196 146.268 42.1477 146.55 42.0511C146.831 41.9505 147.075 41.8016 147.28 41.6044C147.485 41.4072 147.642 41.1637 147.751 40.8739L149.46 41.1818C149.323 41.6849 149.077 42.1256 148.723 42.5039C148.373 42.8782 147.932 43.17 147.401 43.3793C146.874 43.5845 146.272 43.6871 145.596 43.6871ZM151.577 43.5V34.2273H153.382V43.5H151.577ZM152.489 32.7965C152.175 32.7965 151.905 32.6919 151.68 32.4826C151.458 32.2693 151.348 32.0157 151.348 31.7219C151.348 31.4241 151.458 31.1706 151.68 30.9613C151.905 30.748 152.175 30.6413 152.489 30.6413C152.802 30.6413 153.07 30.748 153.291 30.9613C153.517 31.1706 153.63 31.4241 153.63 31.7219C153.63 32.0157 153.517 32.2693 153.291 32.4826C153.07 32.6919 152.802 32.7965 152.489 32.7965Z" fill="#E8E8E8"/>
</g>
<defs>
<filter id="filter0_d_24_104" x="6.287" y="2.28571" width="51.4286" height="51.4286" filterUnits="userSpaceOnUse" color-interpolation-filters="sRGB">
<feFlood flood-opacity="0" result="BackgroundImageFix"/>
<feColorMatrix in="SourceAlpha" type="matrix" values="0 0 0 0 0 0 0 0 0 0 0 0 0 0 0 0 0 0 127 0" result="hardAlpha"/>
<feOffset/>
<feGaussianBlur stdDeviation="2.85714"/>
<feComposite in2="hardAlpha" operator="out"/>
<feColorMatrix type="matrix" values="0 0 0 0 0 0 0 0 0 0 0 0 0 0 0 0 0 0 0.25 0"/>
<feBlend mode="normal" in2="BackgroundImageFix" result="effect1_dropShadow_24_104"/>
<feBlend mode="normal" in="SourceGraphic" in2="effect1_dropShadow_24_104" result="shape"/>
</filter>
<filter id="filter1_d_24_104" x="54.4013" y="3.9" width="114.2" height="48.2" filterUnits="userSpaceOnUse" color-interpolation-filters="sRGB">
<feFlood flood-opacity="0" result="BackgroundImageFix"/>
<feColorMatrix in="SourceAlpha" type="matrix" values="0 0 0 0 0 0 0 0 0 0 0 0 0 0 0 0 0 0 127 0" result="hardAlpha"/>
<feOffset/>
<feGaussianBlur stdDeviation="2.8"/>
<feComposite in2="hardAlpha" operator="out"/>
<feColorMatrix type="matrix" values="0 0 0 0 0 0 0 0 0 0 0 0 0 0 0 0 0 0 0.25 0"/>
<feBlend mode="normal" in2="BackgroundImageFix" result="effect1_dropShadow_24_104"/>
<feBlend mode="normal" in="SourceGraphic" in2="effect1_dropShadow_24_104" result="shape"/>
</filter>
<linearGradient id="paint0_linear_24_104" x1="87.5013" y1="0" x2="87.5013" y2="56" gradientUnits="userSpaceOnUse">
<stop stop-color="#1B1D31"/>
<stop offset="1" stop-color="#11121F"/>
</linearGradient>
</defs>
</svg>
